<svg xmlns="http://www.w3.org/2000/svg" width="920" height="1047" version="1.2"><g id="LOGO_pieces copy"><g id="full"><path id="polygon bg _excluded" fill="#fe7d37" fill-rule="evenodd" d="M909.8 753.7c0 17.8-9.6 34.3-25 43.3l-399.6 230.6c-15.4 9-34.5 9-50 0L35.7 797c-15.4-9-25-25.5-25-43.3V292.4a50 50 0 0 1 25-43.3L435.2 18.4a50.2 50.2 0 0 1 50 0l399.6 230.7a50 50 0 0 1 25 43.3zM502.2 404l-169.4 2 275 240.5L341.1 886h168.7L728 689.8q20.3-17.1 20-45-.2-12.8-5.4-24.1-5.6-11.4-14.8-19.5zm-338.3-40.9q-9.1 8.2-14.6 19.7-5 11.4-5 24.2.1 27.8 20.6 44.7L385.6 645l171.2-.2-272.3-238 271.8-244.1-169.4.2z"/></g></g></svg>