<svg xmlns="http://www.w3.org/2000/svg" width="920" height="1047" version="1.2"><g id="LOGO_pieces copy"><g id="full"><path id="angle brackets _merged" fill="#fff" stroke="#fff" stroke-linejoin="round" stroke-width="2" d="m502.2 404-169.4 2 275 240.5-266.7 239.6 168.7-.1L728 689.8q20.3-17.1 20-45-.2-12.7-5.4-24.1-5.6-11.3-14.8-19.5zM386.9 162.9l169.4-.1-271.8 244 272.3 238-171.2.2-220.7-193.3q-20.5-16.9-20.6-44.7 0-12.8 5-24.2 5.5-11.4 14.6-19.7z" paint-order="stroke fill markers"/><path id="polygon bg _excluded" fill="#fe7d37" fill-rule="evenodd" d="M909.8 753.7c0 17.8-9.6 34.3-25 43.3l-399.6 230.6c-15.4 9-34.5 9-50 0L35.7 797c-15.4-9-25-25.5-25-43.3V292.4a50 50 0 0 1 25-43.3L435.2 18.4a50.2 50.2 0 0 1 50 0l399.6 230.7a50 50 0 0 1 25 43.3zM502.2 404l-169.4 2 275 240.5L341.1 886h168.7L728 689.8q20.3-17.1 20-45-.2-12.8-5.4-24.1-5.6-11.4-14.8-19.5zm-338.3-40.9q-9.1 8.2-14.6 19.7-5 11.4-5 24.2.1 27.8 20.6 44.7L385.6 645l171.2-.2-272.3-238 271.8-244.1-169.4.2z"/></g></g></svg>