<svg xmlns="http://www.w3.org/2000/svg" width="920" height="1047" version="1.2"><g id="LOGO_pieces copy"><g id="outline"><path id="polygon bg _excluded copy" fill="none" fill-rule="evenodd" stroke="#fff" stroke-linecap="round" stroke-width="10" d="M909.9 752.5a50 50 0 0 1-25 43.3l-399.4 230.8a50 50 0 0 1-50 .1L35.9 796.2a50 50 0 0 1-25.1-43.3l-.2-461.3c0-17.9 9.5-34.4 25-43.3L435 17.4a50.2 50.2 0 0 1 50 0l399.6 230.4c15.5 9 25 25.5 25.1 43.3z"/><path id="angle brackets _merged copy" fill="#fff" d="m502.2 403-169.4 2 275 240.5-266.7 239.6 168.7-.1L728 688.8q20.3-17.1 20-45-.2-12.7-5.4-24.1-5.6-11.3-14.8-19.5zM386.9 161.9l169.4-.1-271.8 244 272.3 238-171.2.2-220.7-193.3q-20.5-16.9-20.6-44.7 0-12.8 5-24.2 5.5-11.4 14.6-19.7z"/></g></g></svg>